<svg height="512pt" viewBox="0 0 512 512" width="512pt" xmlns="http://www.w3.org/2000/svg"><path d="m211 197c0-8.289062-6.710938-15-15-15-74.148438 0-75 129.492188-75 135 0 6.0625 3.648438 11.542969 9.257812 13.855469 5.527344 2.308593 12.019532 1.078125 16.347657-3.25.265625-.25 26.03125-25.605469 63.121093-25.605469 8.289063 0 15-6.710938 15-15zm0 0" fill="#f03800"/><path d="m316 182c-8.289062 0-15 6.710938-15 15l-15 90c0 8.289062 6.710938 15 15 15 37.894531 0 64.175781 25.398438 64.394531 25.605469 4.324219 4.324219 10.816407 5.558593 16.347657 3.25 5.609374-2.3125 9.257812-7.792969 9.257812-13.855469 0-5.507812-.851562-135-75-135zm0 0" fill="#c92e00"/><path d="m321.097656 287c-1.5 5.398438-2.699218 10.800781-4.496094 15.898438l-15.601562 46.101562-.902344 2.402344c-1.796875 6-7.5 10.199218-14.097656 10.199218h-60c-6.597656 0-12.300781-4.199218-14.097656-10.199218l-.902344-2.402344-15.601562-46.101562c-1.800782-5.097657-3-10.5-4.5-15.898438l65.101562-15zm0 0" fill="#ff641a"/><path d="m321.097656 287c-1.5 5.398438-2.699218 10.800781-4.496094 15.898438l-15.601562 46.101562-.902344 2.402344c-1.796875 6-7.5 10.199218-14.097656 10.199218h-30v-89.601562zm0 0" fill="#f03800"/><path d="m321.097656 287h-130.195312c-12.902344-49.800781-10.800782-102 5.699218-150l59.398438-15 59.398438 15c16.503906 48 18.601562 100.199219 5.699218 150zm0 0" fill="#e1ebf0"/><path d="m321.097656 287h-65.097656v-165l59.398438 15c16.503906 48 18.601562 100.199219 5.699218 150zm0 0" fill="#b4d2d7"/><path d="m315.398438 137h-118.796876c9.597657-28.800781 24.597657-56.101562 44.398438-80.101562v-41.898438c0-8.402344 6.597656-15 15-15s15 6.597656 15 15v41.898438c19.800781 24 34.800781 51.300781 44.398438 80.101562zm0 0" fill="#ff641a"/><path d="m315.398438 137h-59.398438v-137c8.402344 0 15 6.597656 15 15v41.898438c19.800781 24 34.800781 51.300781 44.398438 80.101562zm0 0" fill="#f03800"/><path d="m390.246094 42.25c-2.621094-7.859375-11.117188-12.105469-18.976563-9.488281-7.859375 2.621093-12.105469 11.117187-9.488281 18.976562 2.621094 7.859375 11.117188 12.105469 18.976562 9.488281 7.859376-2.621093 12.109376-11.117187 9.488282-18.976562zm0 0" fill="#b4d2d7"/><path d="m481.253906 252.253906c-2.621094-7.859375-11.117187-12.105468-18.976562-9.484375-7.859375 2.621094-12.109375 11.117188-9.488282 18.976563 2.621094 7.859375 11.117188 12.105468 18.976563 9.484375 7.859375-2.621094 12.105469-11.117188 9.488281-18.976563zm0 0" fill="#b4d2d7"/><path d="m512 137c0-8.289062-6.710938-15-15-15h-15v-15c0-8.289062-6.710938-15-15-15s-15 6.710938-15 15v15h-15c-8.289062 0-15 6.710938-15 15s6.710938 15 15 15h15v15c0 8.289062 6.710938 15 15 15s15-6.710938 15-15v-15h15c8.289062 0 15-6.710938 15-15zm0 0" fill="#b4d2d7"/><g fill="#e1ebf0"><path d="m150.234375 42.257812c-2.621094-7.859374-11.117187-12.105468-18.976563-9.488281-7.859374 2.621094-12.109374 11.117188-9.488281 18.972657 2.621094 7.859374 11.113281 12.109374 18.972657 9.488281 7.863281-2.617188 12.109374-11.113281 9.492187-18.972657zm0 0"/><path d="m59.238281 252.261719c-2.621093-7.859375-11.117187-12.105469-18.976562-9.484375s-12.109375 11.117187-9.488281 18.976562c2.621093 7.859375 11.117187 12.105469 18.976562 9.484375 7.859375-2.621093 12.109375-11.117187 9.488281-18.976562zm0 0"/><path d="m75 122h-15v-15c0-8.289062-6.710938-15-15-15s-15 6.710938-15 15v15h-15c-8.289062 0-15 6.710938-15 15s6.710938 15 15 15h15v15c0 8.289062 6.710938 15 15 15s15-6.710938 15-15v-15h15c8.289062 0 15-6.710938 15-15s-6.710938-15-15-15zm0 0"/></g><path d="m300.996094 349.03125h.003906v-.011719zm0 0"/><path d="m512 497c0 8.398438-6.597656 15-15 15h-482c-8.402344 0-15-6.601562-15-15 0-41.398438 34.601562-75 76-75 9.300781 0 18.300781 1.800781 26.699219 4.800781 13.5-21.300781 37.199219-34.800781 63.300781-34.800781 13.199219 0 26.101562 3.601562 37.5 10.199219 4.5-16.5 7.5-33.398438 7.5-50.5v-2.699219h90v2.699219c0 17.101562 3 34 7.5 50.5 11.398438-6.597657 24.300781-10.199219 37.5-10.199219 26.101562 0 49.800781 13.5 63.300781 34.800781 8.398438-3 17.398438-4.800781 26.699219-4.800781 41.398438 0 76 33.601562 76 75zm0 0" fill="#fdbf00"/><path d="m512 497c0 8.398438-6.597656 15-15 15h-241v-163h45v2.699219c0 17.101562 3 34 7.5 50.5 11.398438-6.597657 24.300781-10.199219 37.5-10.199219 26.101562 0 49.800781 13.5 63.300781 34.800781 8.398438-3 17.398438-4.800781 26.699219-4.800781 41.398438 0 76 33.601562 76 75zm0 0" fill="#ff9100"/><path d="m271 197c0 8.398438-6.597656 15-15 15s-15-6.601562-15-15c0-8.402344 6.597656-15 15-15s15 6.597656 15 15zm0 0" fill="#00c8c8"/><path d="m271 197c0 8.398438-6.597656 15-15 15v-30c8.402344 0 15 6.597656 15 15zm0 0" fill="#1cadb5"/></svg>